HIERARCHY
ROOT hip
{
	OFFSET 0.000000 0.000000 0.000000 
	CHANNELS 6 Xposition Yposition Zposition Xrotation Zrotation Yrotation
	JOINT abdomen
	{
		OFFSET 0.000000 3.402643 0.000000 
		CHANNELS 3 Xrotation Zrotation Yrotation
		JOINT chest
		{
			OFFSET 0.000000 8.438565 -0.680529 
			CHANNELS 3 Xrotation Zrotation Yrotation
			JOINT neck
			{
				OFFSET 0.000000 10.207942 -0.272212 
				CHANNELS 3 Xrotation Zrotation Yrotation
				JOINT head
				{
					OFFSET 0.000000 3.130431 0.000000 
					CHANNELS 3 Xrotation Zrotation Yrotation
					End Site
					{
						OFFSET 0.000000 3.130435 0.000000 
					}
				}
			}
			JOINT lCollar
			{
				OFFSET 3.470700 6.669187 -0.816635 
				CHANNELS 3 Yrotation Zrotation Xrotation
				JOINT lShldr
				{
					OFFSET 3.198488 0.000000 0.000000 
					CHANNELS 3 Zrotation Yrotation Xrotation
					JOINT lForeArm
					{
						OFFSET 10.139888 0.000000 0.000000 
						CHANNELS 3 Yrotation Zrotation Xrotation
						JOINT lHand
						{
							OFFSET 8.370511 0.000000 0.000000 
							CHANNELS 3 Zrotation Yrotation Xrotation
							End Site
							{
								OFFSET 4.083176 0.000000 0.000000 
							}
						}
					}
				}
			}
			JOINT rCollar
			{
				OFFSET -3.470700 6.669187 -0.816635 
				CHANNELS 3 Yrotation Zrotation Xrotation
				JOINT rShldr
				{
					OFFSET -3.198488 0.000000 0.000000 
					CHANNELS 3 Zrotation Yrotation Xrotation
					JOINT rForeArm
					{
						OFFSET -10.139888 0.000000 0.000000 
						CHANNELS 3 Yrotation Zrotation Xrotation
						JOINT rHand
						{
							OFFSET -8.370511 0.000000 0.000000 
							CHANNELS 3 Zrotation Yrotation Xrotation
							End Site
							{
								OFFSET -4.083176 0.000000 0.000000 
							}
						}
					}
				}
			}
		}
	}
	JOINT lThigh
	{
		OFFSET 5.308129 -1.633274 1.361059 
		CHANNELS 3 Xrotation Zrotation Yrotation
		JOINT lShin
		{
			OFFSET -2.041588 -20.007561 0.000000 
			CHANNELS 3 Xrotation Zrotation Yrotation
			JOINT lFoot
			{
				OFFSET 0.000000 -19.190928 -1.224953 
				CHANNELS 3 Xrotation Yrotation Zrotation
				End Site
				{
					OFFSET 0.000000 -2.449906 4.627600 
				}
			}
		}
	}
	JOINT rThigh
	{
		OFFSET -5.308129 -1.633274 1.361059 
		CHANNELS 3 Xrotation Zrotation Yrotation
		JOINT rShin
		{
			OFFSET 2.041588 -20.007561 0.000000 
			CHANNELS 3 Xrotation Zrotation Yrotation
			JOINT rFoot
			{
				OFFSET 0.000000 -19.190928 -1.224953 
				CHANNELS 3 Xrotation Yrotation Zrotation
				End Site
				{
					OFFSET 0.000000 -2.449906 4.627600 
				}
			}
		}
	}
}
MOTION
Frames: 14
Frame Time: 0.033333
0.091725 48.729195 0.091725 -0.008738 -0.014127 -26.523438 24.173496 7.142269 -20.180714 1.396484 0.000000 -0.019531 -8.544922 -0.001505 -0.009645 19.807169 16.865419 47.852581 2.000000 -2.000000 0.000000 -7.156994 -51.146664 -30.523573 -46.275909 -0.599773 8.546930 -37.527386 -54.128384 -161.604568 -2.000000 2.000000 0.000000 -30.583179 136.120392 -90.378151 54.419010 0.554422 8.622923 13.214983 -54.089943 -39.775913 -27.527380 22.028713 15.201980 23.249083 -1.459935 -2.032962 8.010509 -6.686989 -10.483208 7.672453 -17.084906 -13.614128 22.966772 1.438134 2.014142 -22.237799 -16.183474 16.759638 
0.091725 48.654060 0.091725 -0.008738 -0.014127 -26.523438 24.173496 7.142269 -20.180714 1.396484 0.000000 -0.019531 -8.544922 -0.001505 -0.009645 19.807169 16.865419 47.852581 2.000000 -2.000000 0.000000 -7.156994 -51.146664 -30.523573 -46.275909 -0.599773 8.546930 -37.527386 -54.128384 -161.604568 -2.000000 2.000000 0.000000 -30.583179 136.120392 -90.378151 54.419010 0.554422 8.622923 13.214983 -54.089943 -39.775913 -27.527380 22.028713 15.201980 23.249083 -1.459934 -2.032962 8.010509 -6.686989 -10.483208 7.672453 -17.084906 -13.614128 22.966772 1.438133 2.014142 -22.237799 -16.183474 16.759638 
0.091725 48.578922 0.091725 -0.008736 -0.014131 -26.552734 24.233269 7.185954 -20.247355 1.396484 0.000000 -0.019531 -8.544922 -0.001505 -0.009645 20.052132 16.525255 47.762196 2.000000 -2.000000 0.000000 -7.763315 -50.764832 -30.098635 -46.119503 -0.599111 8.546896 -38.441376 -53.447647 -160.063385 -2.000000 2.000000 0.000000 -30.876646 136.100815 -90.378525 54.758606 0.549757 8.628695 13.339052 -54.104790 -39.567581 -28.404419 22.358322 15.181543 24.540222 -1.416914 -2.140827 7.660426 -6.643512 -10.380413 7.020084 -17.361902 -13.305641 24.348108 1.392846 2.067862 -22.309885 -16.254705 17.107948 
0.091725 45.087883 0.091725 -0.008703 -0.014195 -26.972658 25.180002 7.946025 -21.287149 1.396484 0.000000 -0.019531 -8.544922 -0.001505 -0.009645 23.749115 11.299983 46.136433 2.000000 -2.000000 0.000000 -16.108774 -44.567211 -24.593956 -43.696514 -0.615360 8.530972 -47.643982 -41.497623 -141.038956 -2.000000 2.000000 0.000000 -35.230961 135.851593 -90.125008 59.939983 0.536183 8.666765 15.234747 -54.473701 -36.540947 -42.322159 27.351395 13.811154 44.898109 -0.510822 -3.240300 1.694407 -6.000756 -9.030106 -3.643066 -21.081196 -8.397793 45.952648 0.413774 3.252959 -23.596796 -17.495590 22.185299 
0.091725 41.451706 0.091725 -0.008671 -0.014257 -27.382813 26.122313 8.682497 -22.184023 2.744141 0.000000 -0.019531 -8.544922 -0.001505 -0.009645 27.504660 6.116542 43.748455 2.000000 -2.000000 0.000000 -22.972469 -36.994808 -20.894320 -42.956848 -0.620536 8.517349 -49.890625 -29.398947 -126.783691 -2.000000 2.000000 0.000000 -40.601498 135.362564 -90.672073 64.891144 0.523432 8.725597 17.111029 -54.574417 -33.430840 -56.711609 31.878582 11.111978 64.531250 0.706755 -3.976023 -3.842489 -5.207520 -7.598693 -14.187230 -23.804567 -2.813671 66.666420 -0.878029 3.971166 -24.547749 -18.220417 27.324823 
0.086717 37.580124 0.086717 -0.008643 -0.014312 -27.744139 27.190079 9.034620 -21.900206 4.365234 0.000000 -0.019531 -8.544922 -0.001505 -0.009645 31.231184 0.441518 36.776516 2.000000 -2.000000 0.000000 -29.301876 -20.277807 -19.922729 -58.217937 -0.546242 8.655122 -41.644012 -28.252371 -111.251709 -2.000000 2.000000 0.000000 124.270760 46.424812 81.174019 67.780167 0.513524 8.757272 19.051615 -51.881664 -29.748449 -69.259399 35.667915 7.281544 78.075256 1.642661 -4.197751 -5.706131 -2.226962 -6.017659 -18.991795 -25.436800 2.456170 79.488586 -1.777075 4.163012 -23.703222 -13.595385 32.618172 
0.086717 33.718544 0.086717 -0.008614 -0.014366 -28.105469 28.238630 9.351810 -21.552950 5.957031 0.000000 -0.019531 -8.544922 -0.001505 -0.009645 35.531193 -4.544620 29.348162 2.000000 -2.000000 0.000000 -34.023319 -5.856940 -20.988686 -72.984512 -0.513341 8.803221 -34.708111 -26.680235 -92.383904 -2.000000 2.000000 0.000000 108.157196 46.559074 71.925163 70.506065 0.508911 8.786185 21.137819 -49.114265 -26.126333 -82.599884 38.550282 2.228949 91.193214 2.577320 -4.215968 -7.304234 0.865768 -4.370162 -23.409990 -26.800234 7.813202 91.661377 -2.645928 4.171468 -23.557289 -8.477983 37.523991 
0.086717 29.921965 0.086717 -0.008589 -0.014413 -28.417969 29.149881 9.436002 -20.768902 7.373047 0.000000 -0.019531 -8.544922 -0.001505 -0.009645 39.747540 -7.717566 21.040407 2.000000 -2.000000 0.000000 -32.339851 -6.866704 -23.844427 -84.369545 -0.514623 8.923155 -30.047745 -10.467069 -53.260445 -2.000000 2.000000 0.000000 89.468620 43.846897 59.700203 72.260361 0.509883 8.792104 23.355860 -45.409801 -22.560127 -96.160629 39.647835 -4.247427 101.336517 3.298619 -4.064112 -6.637210 4.835287 -3.007969 -24.157635 -28.914301 12.314764 99.415092 -3.192708 4.058194 -25.507603 -0.541835 40.928154 
0.086717 26.426052 0.086717 -0.008565 -0.014457 -28.710939 29.992140 9.485501 -20.038626 8.681641 0.000000 -0.019531 -8.544922 -0.001505 -0.009645 44.048931 -10.019198 13.097462 2.000000 -2.000000 0.000000 -30.478354 -8.094718 -26.631638 -94.977234 -0.528933 9.039179 -17.086349 -0.435428 -15.719673 -2.000000 2.000000 0.000000 73.513214 38.698673 50.137466 74.043175 0.510433 8.822301 25.690765 -41.955463 -19.085848 -109.724762 39.442822 -10.998191 110.973068 3.912804 -3.809430 -5.719172 8.550178 -1.706710 -24.663208 -31.080851 16.734474 106.538368 -3.680982 3.923806 -28.126440 6.966296 44.375416 
0.086717 23.180506 0.086717 -0.008543 -0.014498 -28.984375 30.454380 9.495443 -19.577106 9.394531 0.000000 -0.019531 -8.544922 -0.001505 -0.009645 46.581291 -10.734509 8.474255 2.000000 -2.000000 0.000000 -27.938076 -10.785636 -28.914179 -101.587288 -0.552832 9.097130 -4.239455 2.983003 13.929515 -2.000000 2.000000 0.000000 62.396217 32.329906 44.286861 75.925209 0.503648 8.838859 27.867554 -39.322330 -16.025019 -121.875137 37.595211 -17.248886 117.842087 4.350851 -3.574127 -3.012282 10.942641 -0.887662 -23.273527 -33.793736 20.112314 110.230171 -3.915144 3.808409 -32.020947 12.895955 47.109539 
0.086717 20.861546 0.086717 -0.008522 -0.014534 -29.228514 30.855175 9.505486 -19.204836 10.019531 0.000000 -0.019531 -8.544922 -0.001505 -0.009645 48.817829 -11.192643 4.505219 2.000000 -2.000000 0.000000 -25.726242 -12.884806 -30.990252 -107.166977 -0.584694 9.148113 6.727847 0.457768 39.050289 -2.000000 2.000000 0.000000 54.495857 26.678959 40.860451 77.448830 0.503658 8.855904 29.686525 -37.275013 -13.556638 -131.817795 35.262169 -22.040468 123.680382 4.691823 -3.338928 -0.560125 13.040240 -0.226245 -22.092840 -36.274960 23.038902 113.278198 -4.110436 3.705933 -35.542042 18.036148 49.781139 
0.086717 19.934959 0.086717 -0.008504 -0.014566 -29.443361 30.984703 9.551128 -19.193861 10.224609 0.000000 -0.019531 -8.544922 -0.001505 -0.009645 49.579056 -11.333939 3.444644 2.000000 -2.000000 0.000000 -25.367189 -12.889503 -31.695278 -108.450478 -0.586053 9.160037 8.957783 -1.170212 44.901711 -2.000000 2.000000 0.000000 54.397041 26.958107 40.645672 77.448830 0.503658 8.855904 29.686525 -37.275013 -13.556638 -134.993958 34.501011 -23.583923 125.304916 4.770023 -3.263263 0.449236 13.673764 0.065680 -21.446285 -37.543270 23.982225 113.736763 -4.158300 3.694593 -36.027473 20.598492 50.541809 
0.086717 19.744637 0.086717 -0.008487 -0.014596 -29.648438 31.115433 9.593407 -19.171946 10.419922 0.000000 -0.019531 -8.544922 -0.001505 -0.009645 50.328636 -11.454865 2.403488 2.000000 -2.000000 0.000000 -25.046257 -12.896201 -32.378151 -109.611893 -0.591773 9.172570 10.879679 -2.877396 50.247314 -2.000000 2.000000 0.000000 54.302559 27.231796 40.442287 77.374657 0.504516 8.846336 29.686525 -37.275013 -13.556638 -137.026321 34.091084 -24.512098 126.342094 4.819983 -3.223270 1.067311 14.277208 0.312011 -21.019379 -38.589985 24.686214 113.941864 -4.177789 3.685520 -35.981693 22.986784 50.949390 
0.086717 20.265522 0.086717 -0.008473 -0.014621 -29.814451 31.236385 9.635785 -19.151842 10.595703 0.000000 -0.019531 -8.544922 -0.001505 -0.009645 51.014591 -11.550430 1.455981 2.000000 -2.000000 0.000000 -24.802755 -12.838338 -32.974243 -110.372795 -0.596990 9.180434 12.169913 -4.229981 54.149853 -2.000000 2.000000 0.000000 54.269772 27.430716 40.324474 77.141113 0.503746 8.849237 29.686525 -37.275013 -13.556638 -135.277496 35.047836 -23.648092 125.481041 4.789591 -3.251883 0.142313 14.817416 0.469594 -21.242813 -38.823364 24.455647 113.326622 -4.120074 3.711024 -33.919205 24.811510 49.974915 
